<svg xmlns="http://www.w3.org/2000/svg" version="1.1" xmlns:xlink="http://www.w3.org/1999/xlink" xmlns:svgjs="http://svgjs.dev/svgjs" width="2000" height="1500" viewBox="0 0 2000 1500"><rect width="2000" height="1500" fill="#ffffff"></rect><g transform="matrix(0.75,0,0,0.75,249.090909090909,310.7909086168013)"><svg viewBox="0 0 396 232" data-background-color="#ffffff" preserveAspectRatio="xMidYMid meet" height="1171" width="2000" xmlns="http://www.w3.org/2000/svg" xmlns:xlink="http://www.w3.org/1999/xlink"><g id="tight-bounds" transform="matrix(1,0,0,1,0.2400000000000091,0.022213721494011907)"><svg viewBox="0 0 395.52 231.95557255701198" height="231.95557255701198" width="395.52"><g><svg viewBox="0 0 395.52 231.95557255701198" height="231.95557255701198" width="395.52"><g transform="matrix(1,0,0,1,0,173.15517513290894)"><svg viewBox="0 0 395.52 58.80039742410304" height="58.80039742410304" width="395.52"><g id="textblocktransform"><svg viewBox="0 0 395.52 58.80039742410304" height="58.80039742410304" width="395.52" id="textblock"><g><svg viewBox="0 0 395.52 58.80039742410304" height="58.80039742410304" width="395.52"><g transform="matrix(1,0,0,1,0,0)"><svg width="395.52" viewBox="1.75 -39.65 271.72 40.4" height="58.80039742410304" data-palette-color="#85144b"><path d="M14.45-35.25Q20.55-35.25 23.85-30.8 27.15-26.35 27.15-17.3L27.15-17.3Q27.15-8.35 23.85-3.8 20.55 0.75 14.45 0.75L14.45 0.75Q8.4 0.75 5.08-3.75 1.75-8.25 1.75-17.25L1.75-17.25Q1.75-26.15 5.08-30.7 8.4-35.25 14.45-35.25L14.45-35.25ZM14.45-30.45Q11.4-30.45 9.93-27.4 8.45-24.35 8.45-17.25L8.45-17.25Q8.45-10.1 9.95-7.13 11.45-4.15 14.45-4.15L14.45-4.15Q17.55-4.15 19.03-7.1 20.5-10.05 20.5-17.3L20.5-17.3Q20.5-24.4 19-27.43 17.5-30.45 14.45-30.45L14.45-30.45ZM44.1-27.15Q46.95-27.15 48.6-25.1 50.25-23.05 50.25-19.6L50.25-19.6 50.25 0 44.1 0 44.1-18.9Q44.1-20.8 43.57-21.63 43.05-22.45 42.05-22.45L42.05-22.45Q39.95-22.45 37.9-18.5L37.9-18.5 37.9 0 31.75 0 31.75-26.45 37.1-26.45 37.55-23Q38.9-25.1 40.42-26.13 41.95-27.15 44.1-27.15L44.1-27.15ZM67.95-27.15Q71.8-27.15 73.85-23.65 75.9-20.15 75.9-13.25L75.9-13.25Q75.9-6.75 73.6-3 71.3 0.75 67.3 0.75L67.3 0.75Q65.55 0.75 64.1-0.13 62.65-1 61.6-2.55L61.6-2.55 61.25 0 55.8 0 55.8-37 61.95-37.65 61.95-23.6Q63-25.3 64.52-26.23 66.05-27.15 67.95-27.15L67.95-27.15ZM65.65-3.9Q67.5-3.9 68.52-6 69.55-8.1 69.55-13.25L69.55-13.25Q69.55-18.6 68.62-20.58 67.7-22.55 66-22.55L66-22.55Q64.85-22.55 63.8-21.6 62.75-20.65 61.95-19.1L61.95-19.1 61.95-6.7Q62.6-5.45 63.57-4.67 64.55-3.9 65.65-3.9L65.65-3.9ZM89.89-27.15Q94.89-27.15 97.67-23.65 100.44-20.15 100.44-13.25L100.44-13.25Q100.44-6.65 97.64-2.95 94.84 0.75 89.89 0.75L89.89 0.75Q84.94 0.75 82.14-2.88 79.34-6.5 79.34-13.25L79.34-13.25Q79.34-19.95 82.14-23.55 84.94-27.15 89.89-27.15L89.89-27.15ZM89.89-22.5Q87.74-22.5 86.74-20.38 85.74-18.25 85.74-13.25L85.74-13.25Q85.74-8.2 86.74-6.08 87.74-3.95 89.89-3.95L89.89-3.95Q92.04-3.95 93.04-6.08 94.04-8.2 94.04-13.25L94.04-13.25Q94.04-18.3 93.04-20.4 92.04-22.5 89.89-22.5L89.89-22.5ZM121.89-6.4Q121.89-5.1 122.24-4.48 122.59-3.85 123.39-3.45L123.39-3.45 122.14 0.65Q120.09 0.4 118.87-0.45 117.64-1.3 117.04-3.05L117.04-3.05Q114.74 0.75 110.59 0.75L110.59 0.75Q107.29 0.75 105.34-1.48 103.39-3.7 103.39-7.4L103.39-7.4Q103.39-11.7 106.07-13.95 108.74-16.2 113.84-16.2L113.84-16.2 115.89-16.2 115.89-18.05Q115.89-20.55 115.02-21.58 114.14-22.6 112.19-22.6L112.19-22.6Q109.84-22.6 106.34-21.3L106.34-21.3 104.94-25.3Q106.94-26.2 109.09-26.68 111.24-27.15 113.19-27.15L113.19-27.15Q121.89-27.15 121.89-18.35L121.89-18.35 121.89-6.4ZM112.24-3.7Q114.64-3.7 115.89-7L115.89-7 115.89-12.55 114.44-12.55Q111.89-12.55 110.72-11.4 109.54-10.25 109.54-7.85L109.54-7.85Q109.54-5.8 110.24-4.75 110.94-3.7 112.24-3.7L112.24-3.7ZM139.34-27.1Q140.49-27.1 141.39-26.75L141.39-26.75 140.39-20.85Q139.39-21.1 138.54-21.1L138.54-21.1Q136.64-21.1 135.54-19.45 134.44-17.8 133.84-14.55L133.84-14.55 133.84 0 127.69 0 127.69-26.45 133.04-26.45 133.49-21.85Q135.34-27.1 139.34-27.1L139.34-27.1ZM157.19-37.7L163.34-37.05 163.34 0 157.89 0 157.59-3.05Q155.24 0.75 151.54 0.75L151.54 0.75Q147.44 0.75 145.26-2.93 143.09-6.6 143.09-13.2L143.09-13.2Q143.09-17.4 144.21-20.58 145.34-23.75 147.34-25.45 149.34-27.15 151.94-27.15L151.94-27.15Q155.14-27.15 157.19-24.5L157.19-24.5 157.19-37.7ZM153.29-3.9Q154.44-3.9 155.36-4.7 156.29-5.5 157.19-7L157.19-7 157.19-19.85Q155.59-22.55 153.54-22.55L153.54-22.55Q149.49-22.55 149.49-13.25L149.49-13.25Q149.49-8.2 150.49-6.05 151.49-3.9 153.29-3.9L153.29-3.9ZM181.43-35.25Q184.28-35.25 186.53-34.23 188.78-33.2 190.78-31.25L190.78-31.25 187.58-27.95Q186.03-29.3 184.68-29.88 183.33-30.45 181.63-30.45L181.63-30.45Q178.33-30.45 176.46-27.5 174.58-24.55 174.58-17.3L174.58-17.3Q174.58-12.2 175.26-9.33 175.93-6.45 177.26-5.3 178.58-4.15 180.73-4.15L180.73-4.15Q182.98-4.15 184.83-5.4L184.83-5.4 184.83-14.75 180.93-14.75 180.28-19.5 190.88-19.5 190.88-2.6Q188.73-1.05 186.11-0.18 183.48 0.7 180.78 0.7L180.78 0.7Q174.33 0.7 171.13-3.68 167.93-8.05 167.93-17.3L167.93-17.3Q167.93-23.3 169.71-27.33 171.48-31.35 174.53-33.3 177.58-35.25 181.43-35.25L181.43-35.25ZM214.78-13.85Q214.78-13.4 214.63-11.3L214.63-11.3 200.98-11.3Q201.18-7.2 202.41-5.58 203.63-3.95 205.88-3.95L205.88-3.95Q207.43-3.95 208.68-4.48 209.93-5 211.38-6.15L211.38-6.15 213.93-2.65Q210.43 0.75 205.53 0.75L205.53 0.75Q200.33 0.75 197.56-2.85 194.78-6.45 194.78-13L194.78-13Q194.78-19.55 197.43-23.35 200.08-27.15 204.93-27.15L204.93-27.15Q209.58-27.15 212.18-23.78 214.78-20.4 214.78-13.85L214.78-13.85ZM208.78-15.3L208.78-15.65Q208.78-19.4 207.88-21.13 206.98-22.85 204.98-22.85L204.98-22.85Q203.13-22.85 202.16-21.18 201.18-19.5 200.98-15.3L200.98-15.3 208.78-15.3ZM231.43-27.15Q234.28-27.15 235.93-25.1 237.58-23.05 237.58-19.6L237.58-19.6 237.58 0 231.43 0 231.43-18.9Q231.43-20.8 230.9-21.63 230.38-22.45 229.38-22.45L229.38-22.45Q227.28-22.45 225.23-18.5L225.23-18.5 225.23 0 219.08 0 219.08-26.45 224.43-26.45 224.88-23Q226.23-25.1 227.75-26.13 229.28-27.15 231.43-27.15L231.43-27.15ZM243.13-26.45L249.28-26.45 249.28 0 243.13 0 243.13-26.45ZM246.18-39.65Q247.83-39.65 248.85-38.6 249.88-37.55 249.88-35.9L249.88-35.9Q249.88-34.3 248.85-33.25 247.83-32.2 246.18-32.2L246.18-32.2Q244.53-32.2 243.5-33.25 242.48-34.3 242.48-35.9L242.48-35.9Q242.48-37.55 243.5-38.6 244.53-39.65 246.18-39.65L246.18-39.65ZM272.42-26.45L266.32-14.15 273.47 0 266.97 0 262.57-10.65 258.27 0 251.92 0 259.07-13.95 252.62-26.45 259.02-26.45 262.67-17.25 266.22-26.45 272.42-26.45Z" opacity="1" transform="matrix(1,0,0,1,0,0)" fill="#85144b" class="wordmark-text-0" data-fill-palette-color="primary" id="text-0"></path></svg></g></svg></g></svg></g></svg></g><g transform="matrix(1,0,0,1,118.12309374469181,0)"><svg viewBox="0 0 159.27381251061635 159.27381251061638" height="159.27381251061638" width="159.27381251061635"><g><svg></svg></g><g id="icon-0"><svg viewBox="0 0 159.27381251061635 159.27381251061638" height="159.27381251061638" width="159.27381251061635"><g><path transform="scale(1.59274,1.59274)" d="M30 100c-16.569 0-30-13.431-30-30v-40c0-16.569 13.431-30 30-30h40c16.569 0 30 13.431 30 30v40c0 16.569-13.431 30-30 30z" fill="#001f3f" fill-rule="nonzero" stroke="none" stroke-width="1" stroke-linecap="butt" stroke-linejoin="miter" stroke-miterlimit="10" stroke-dasharray="" stroke-dashoffset="0" font-family="none" font-weight="none" font-size="none" text-anchor="none" style="mix-blend-mode: normal" data-fill-palette-color="accent"></path></g><g transform="matrix(1,0,0,1,54.01073415170926,31.85476250212328)"><svg viewBox="0 0 51.25234420719783 95.56428750636982" height="95.56428750636982" width="51.25234420719783"><g><svg xmlns="http://www.w3.org/2000/svg" xmlns:xlink="http://www.w3.org/1999/xlink" version="1.1" x="0" y="0" viewBox="27.129 7.088408414268828 46.44499999999999 86.60059167810726" enable-background="new 0 0 100 100" xml:space="preserve" height="95.56428750636982" width="51.25234420719783" class="icon-dxe-0" data-fill-palette-color="quaternary" id="dxe-0"><path d="M50.351 61.271C37.546 61.271 27.129 50.74 27.129 37.795S37.546 14.318 50.351 14.318 73.574 24.85 73.574 37.795 63.155 61.271 50.351 61.271M50.351 18.319C39.752 18.319 31.129 27.056 31.129 37.796S39.752 57.272 50.351 57.272 69.574 48.535 69.574 37.796 60.95 18.319 50.351 18.319" fill="#ffffff" data-fill-palette-color="quaternary"></path><path d="M72 38.98C50 38.98 43.046 34.477 40.231 31.701 37.545 33.678 32.476 35.754 30.875 36.406L29.801 32.533C33.855 30.881 37.89 28.672 38.467 27.806A2 2 0 0 1 39.93 26.911C40.524 26.851 41.12 27.05 41.544 27.474 41.69 27.62 42.061 27.797 42.243 27.999 43.958 29.91 48 34.98 72 34.98z" fill="#ffffff" data-fill-palette-color="quaternary"></path><path d="M41.238 18.785L37.843 13.657A2 2 0 0 1 41.177 11.449L42.346 13.215 44.034 8.382A2.001 2.001 0 0 1 47.811 9.701L44.792 18.341z" fill="#ffffff" data-fill-palette-color="quaternary"></path><path d="M44.854 43.561A2 2 0 0 1 42.854 41.561V39.118A2 2 0 0 1 46.854 39.118V41.561A2 2 0 0 1 44.854 43.561" fill="#ffffff" data-fill-palette-color="quaternary"></path><path d="M55.848 43.561A2 2 0 0 1 53.848 41.561V39.118A2 2 0 0 1 57.848 39.118V41.561A2 2 0 0 1 55.848 43.561" fill="#ffffff" data-fill-palette-color="quaternary"></path><path d="M50.538 52.815C48.743 52.815 47.155 52.185 46.226 51.595A2 2 0 0 1 48.357 48.209C48.47 48.277 50.537 49.494 52.352 48.255A2 2 0 0 1 54.61 51.556 7.1 7.1 0 0 1 50.538 52.815" fill="#ffffff" data-fill-palette-color="quaternary"></path><path d="M54.627 68H47.959C46.93 68 46.069 67.22 45.969 66.196L45.308 59.474A2 2 0 0 1 49.288 59.082L49.772 64H52.828L53.362 58.979C53.479 57.881 54.453 57.1 55.563 57.202A2 2 0 0 1 57.339 59.403L56.614 66.212A1.997 1.997 0 0 1 54.627 68" fill="#ffffff" data-fill-palette-color="quaternary"></path><path d="M51.324 93.689A2 2 0 0 1 49.916 93.11L44.059 87.307A2 2 0 0 1 43.499 85.527L47.137 65.629A2.001 2.001 0 0 1 51.072 66.348L47.624 85.208 52.731 90.269A2 2 0 0 1 51.324 93.689" fill="#ffffff" data-fill-palette-color="quaternary"></path><path d="M51.572 93.689A2 2 0 0 1 50.164 90.268L55.256 85.223 51.481 66.38A2 2 0 0 1 55.403 65.594L59.39 85.492A2 2 0 0 1 58.836 87.305L52.979 93.108A2 2 0 0 1 51.572 93.689" fill="#ffffff" data-fill-palette-color="quaternary"></path></svg></g></svg></g></svg></g></svg></g><g></g></svg></g><defs></defs></svg><rect width="395.52" height="231.95557255701198" fill="none" stroke="none" visibility="hidden"></rect></g></svg></g></svg>